<svg xmlns="http://www.w3.org/2000/svg" width="120" height="120" viewBox="0 0 120 120">
  <title>graphql-react logo</title>
  <circle fill="#e10098" cx="60.462" cy="11.176" r="10.775" />
  <circle fill="#e10098" cx="17.151" cy="84.363" r="10.775" />
  <circle fill="#e10098" cx="103.772" cy="84.363" r="10.775" />
  <circle fill="#e10098" cx="60.462" cy="108.758" r="10.775" />
  <circle fill="#e10098" cx="17.151" cy="35.265" r="10.775" />
  <circle fill="#e10098" cx="103.772" cy="35.573" r="10.775" />
  <path fill="#e10098" d="m60.462 108.756-1.209 2.146 1.209.681 1.208-.681-1.208-2.146ZM17.15 84.363l-2.12-1.254-2.2 3.717h4.32v-2.463Zm86.621 0-2.119 1.254 4.582 7.742v-8.996h-2.463Zm-65.688-63.41L15.942 33.425l2.418 4.291L40.5 25.245l-2.417-4.292ZM14.69 59.963l-.002 24.4h4.926l.002-24.399H14.69ZM37.71 98.769l21.544 12.134 2.417-4.291-21.544-12.135-2.417 4.292Zm23.961 12.134L83.082 98.84l-2.418-4.291-21.411 12.062 2.417 4.291Zm42.102-29.008-86.621.006v4.926l86.621-.006v-4.926ZM19.27 85.617l21.762-36.773-4.239-2.509L15.031 83.11l4.24 2.508Zm60.71-36.62 21.673 36.62 4.239-2.509-21.674-36.62-4.239 2.51Zm26.255 35.366v-24.4h-4.926v24.4h4.926Zm-1.254-50.936-22.05-12.421-2.418 4.291 22.05 12.421 2.418-4.291Z" />
  <ellipse fill="none" stroke="#61dafb" stroke-width="4.378" cx="60.462" cy="59.969" rx="48.16" ry="18.389" />
  <ellipse fill="none" stroke="#61dafb" stroke-width="4.378" cx="60.462" cy="59.969" rx="48.16" ry="18.389" transform="rotate(60 60.462 59.97)" />
  <ellipse fill="none" stroke="#61dafb" stroke-width="4.378" cx="60.462" cy="59.969" rx="48.16" ry="18.389" transform="rotate(120 60.462 59.97)" />
  <circle fill="#61dafb" cx="60.462" cy="59.969" r="8.975" />
  <path fill="#e10098" d="M60.462 11.176 61.67 9.03l-1.208-.68-1.21.68 1.21 2.146Zm43.31 73.181 1.209 2.146 8.181-4.61-9.39.001v2.463Zm-43.31-73.181 2.119-1.254-2.12-3.582-2.119 3.582 2.12 1.254Zm22.468 9.83L61.67 9.03l-2.417 4.292 21.26 11.975 2.417-4.291ZM59.253 9.03 38.084 20.953l2.417 4.292 21.17-11.923-2.418-4.292ZM14.688 35.57l.002 24.394h4.926l-.002-24.394h-4.926Zm1.254 50.939L37.71 98.768l2.417-4.292L18.36 82.217l-2.418 4.292Zm67.14 12.33 21.899-12.336-2.418-4.291-21.899 12.337 2.418 4.29Zm20.69-16.945-25.291.002v4.926l25.291-.002v-4.926Zm-61.868.004-24.753.002v4.925l24.754-.001v-4.926Zm-.872-33.054L62.581 12.43l-4.239-2.508-21.549 36.413 4.239 2.509Zm17.31-36.414 21.637 36.567 4.239-2.508L62.581 9.922l-4.24 2.508Zm47.893 47.534V35.572h-4.926v24.392h4.926Z" />
</svg>
